<mxfile host="app.diagrams.net" modified="2024-11-17T11:15:39.719Z" agent="Mozilla/5.0 (Windows NT 10.0; Win64; x64) AppleWebKit/537.36 (KHTML, like Gecko) Chrome/130.0.0.0 Safari/537.36" version="24.4.0" etag="mmappnmFgWuZ8kaXUZZD" type="github">
  <diagram name="Trang-1" id="Jyb3W-MzNTrBnkcQSr4K">
    <mxGraphModel>
      <root>
        <mxCell id="0" />
        <mxCell id="1" parent="0" />
      </root>
    </mxGraphModel>
  </diagram>
</mxfile>
